<svg width="27" height="32" viewBox="0 0 27 32" fill="none" xmlns="http://www.w3.org/2000/svg">
<path d="M22.8845 3.36C22.4045 3.36 21.9245 3.2 21.4445 3.2H8.64453C5.92453 3.2 3.84453 5.28 3.84453 8V27.2C3.84453 27.68 4.00453 28.16 4.00453 28.64C2.08453 28 0.644531 26.24 0.644531 24V4.8C0.644531 2.08 2.72453 0 5.44453 0H18.2445C20.4845 0 22.2445 1.44 22.8845 3.36Z" fill={` ${styleMode ? "white": "black"}`} />
<path opacity="0.35" d="M3.84414 27.2016L2.24414 8.00156C2.24414 5.28156 5.92414 1.60156 8.64414 1.60156L21.4441 3.20156C24.1641 3.20156 26.2441 5.28156 26.2441 8.00156V27.2016C26.2441 29.9216 24.1641 32.0016 21.4441 32.0016H8.64414C5.92414 32.0016 3.84414 29.9216 3.84414 27.2016Z" fill={` ${styleMode ? "white": "black"}`} />
<path d="M19.8445 12.8016H10.2445C9.28453 12.8016 8.64453 12.1616 8.64453 11.2016C8.64453 10.2416 9.28453 9.60156 10.2445 9.60156H19.8445C20.8045 9.60156 21.4445 10.2416 21.4445 11.2016C21.4445 12.1616 20.8045 12.8016 19.8445 12.8016Z" fill={` ${styleMode ? "white": "black"}`} />
<path d="M19.8445 19.2H10.2445C9.28453 19.2 8.64453 18.56 8.64453 17.6C8.64453 16.64 9.28453 16 10.2445 16H19.8445C20.8045 16 21.4445 16.64 21.4445 17.6C21.4445 18.56 20.8045 19.2 19.8445 19.2Z" fill={` ${styleMode ? "white": "black"}`} />
<path d="M19.8445 25.5984H10.2445C9.28453 25.5984 8.64453 24.9584 8.64453 23.9984C8.64453 23.0384 9.28453 22.3984 10.2445 22.3984H19.8445C20.8045 22.3984 21.4445 23.0384 21.4445 23.9984C21.4445 24.9584 20.8045 25.5984 19.8445 25.5984Z" fill={` ${styleMode ? "white": "black"}`} />
</svg>
