<svg width="34" height="35" viewBox="0 0 34 35" fill="none" xmlns="http://www.w3.org/2000/svg">
<path opacity="0.35" d="M17.3112 0C8.1062 0 0.644531 7.46167 0.644531 16.6667V23.3333H5.64453V16.6667C5.64453 10.2233 10.8679 5 17.3112 5C23.7545 5 28.9779 10.2233 28.9779 16.6667V23.3333H33.9779V16.6667C33.9779 7.46167 26.5162 0 17.3112 0Z" fill="black"/>
<path d="M32.3112 16.668H28.9779C27.1362 16.668 25.6445 18.1596 25.6445 20.0013V23.3346C25.6445 25.1763 27.1362 26.668 28.9779 26.668H32.3112C33.2312 26.668 33.9779 25.9213 33.9779 25.0013V18.3346C33.9779 17.4146 33.2312 16.668 32.3112 16.668Z" fill="black"/>
<path d="M2.3112 16.668H5.64453C7.4862 16.668 8.97786 18.1596 8.97786 20.0013V23.3346C8.97786 25.1763 7.4862 26.668 5.64453 26.668H2.3112C1.3912 26.668 0.644531 25.9213 0.644531 25.0013V18.3346C0.644531 17.4146 1.3912 16.668 2.3112 16.668Z" fill="black"/>
<path opacity="0.35" d="M5.64388 26.6667V25H2.31055V26.6667C2.31055 30.3483 5.29555 33.3333 8.97721 33.3333H17.3105V30H8.97721C7.13555 30 5.64388 28.5083 5.64388 26.6667Z" fill="black"/>
<path d="M17.3109 34.9987C19.1518 34.9987 20.6442 33.5063 20.6442 31.6654C20.6442 29.8244 19.1518 28.332 17.3109 28.332C15.4699 28.332 13.9775 29.8244 13.9775 31.6654C13.9775 33.5063 15.4699 34.9987 17.3109 34.9987Z" fill="black"/>
</svg>
