<svg width="37" height="32" viewBox="0 0 37 32" fill="none" xmlns="http://www.w3.org/2000/svg">
<path d="M33.5334 23.1094C32.8472 23.1094 3.99742 23.1094 3.3112 23.1094C1.8392 23.1094 0.644531 24.304 0.644531 25.776C0.644531 27.248 1.8392 28.4427 3.3112 28.4427C3.99742 28.4427 32.8472 28.4427 33.5334 28.4427C35.0054 28.4427 36.2001 27.248 36.2001 25.776C36.2001 24.304 35.0054 23.1094 33.5334 23.1094Z" fill={` ${styleMode ? "white": "black"}`} />
<path d="M9.53353 26.668H4.2002C4.2002 26.668 4.2002 28.6484 4.2002 29.3346C4.2002 30.8066 5.39486 32.0013 6.86686 32.0013C8.33886 32.0013 9.53353 30.8066 9.53353 29.3346C9.53353 28.6484 9.53353 26.668 9.53353 26.668Z" fill={` ${styleMode ? "white": "black"}`} />
<path d="M32.6449 26.668H27.3115C27.3115 26.668 27.3115 28.6484 27.3115 29.3346C27.3115 30.8066 28.5062 32.0013 29.9782 32.0013C31.4502 32.0013 32.6449 30.8066 32.6449 29.3346C32.6449 28.6484 32.6449 26.668 32.6449 26.668Z" fill={` ${styleMode ? "white": "black"}`} />
<path opacity="0.35" d="M9.53396 23.1111H5.97841C4.01396 23.1111 2.42285 21.52 2.42285 19.5556V3.55556C2.42285 1.59111 4.01396 0 5.97841 0H9.53396C11.4984 0 13.0895 1.59111 13.0895 3.55556V19.5556C13.0895 21.52 11.4984 23.1111 9.53396 23.1111Z" fill={` ${styleMode ? "white": "black"}`} />
<path d="M20.1995 23.1102H16.644C15.6627 23.1102 14.8662 22.3138 14.8662 21.3325V5.33247C14.8662 4.35113 15.6627 3.55469 16.644 3.55469H20.1995C21.1809 3.55469 21.9773 4.35113 21.9773 5.33247V21.3325C21.9773 22.3138 21.1809 23.1102 20.1995 23.1102Z" fill={` ${styleMode ? "white": "black"}`} />
<path opacity="0.35" d="M32.7672 22.4002L31.7397 22.8678C30.3815 23.4847 28.7815 22.8856 28.1646 21.5273L22.2926 8.61355C21.6757 7.25533 22.2748 5.65533 23.633 5.03844L24.6606 4.57089C26.0188 3.954 27.6188 4.55311 28.2357 5.91133L34.1077 18.8251C34.7246 20.1816 34.1255 21.7816 32.7672 22.4002Z" fill={` ${styleMode ? "white": "black"}`} />
<path d="M9.53309 14.2227H5.97754V17.7782H9.53309V14.2227Z" fill={` ${styleMode ? "white": "black"}`} />
<path d="M9.53364 17.7782C10.5155 17.7782 11.3114 16.9823 11.3114 16.0004C11.3114 15.0186 10.5155 14.2227 9.53364 14.2227C8.5518 14.2227 7.75586 15.0186 7.75586 16.0004C7.75586 16.9823 8.5518 17.7782 9.53364 17.7782Z" fill={` ${styleMode ? "white": "black"}`} />
<path d="M5.97797 17.7782C6.95981 17.7782 7.75575 16.9823 7.75575 16.0004C7.75575 15.0186 6.95981 14.2227 5.97797 14.2227C4.99613 14.2227 4.2002 15.0186 4.2002 16.0004C4.2002 16.9823 4.99613 17.7782 5.97797 17.7782Z" fill={` ${styleMode ? "white": "black"}`} />
</svg>
