<svg width="39" height="36" viewBox="0 0 39 36" fill="none" xmlns="http://www.w3.org/2000/svg">
<path opacity="0.35" d="M0.912109 22.1701L3.95541 9.20337C4.40431 7.29291 5.90828 6.14063 7.49532 5.12266C11.0936 2.81102 14.0838 0.140625 16.6765 0.140625C20.9905 0.140625 23.8058 3.76007 25.7887 6.46228C28.3213 9.91029 35.3693 20.1076 36.2653 21.0284C37.3893 22.1825 37.3875 24.2608 36.1911 25.7241C34.627 27.6364 32.3754 26.9241 32.3754 26.9241C32.3754 26.9241 32.3967 28.6402 30.9669 29.849C29.5018 31.0879 27.7522 30.6744 27.7522 30.6744C27.7522 30.6744 27.6461 32.0811 26.128 33.039C24.5763 34.0181 22.5722 32.8658 22.5722 32.8658C22.5722 32.8658 22.505 34.3203 21.5843 34.9177C20.5469 35.591 19.2744 35.4231 18.3254 34.7586C17.1059 33.9032 0.912109 22.1701 0.912109 22.1701Z" fill="black"/>
<path d="M38.636 17.2277C37.4607 13.944 36.0628 8.22327 35.3541 6.04418C34.6454 3.8651 33.7776 3.10692 31.2716 2.35228C30.6106 2.15435 24.3897 0 22.4068 0C21.7582 0 20.6766 0.224448 18.9482 0.777615C17.8418 1.13108 15.836 1.67541 15.1449 2.4919C14.5034 3.25007 12.699 7.13638 11.6192 9.52754C11.096 10.6834 11.727 12.0689 12.9093 12.3287C14.3691 12.6486 16.0869 12.4471 17.6545 11.0174C18.8527 9.92342 20.4044 8.5838 21.41 7.72312C22.0021 7.21237 22.8469 7.24595 23.4089 7.79382C24.2501 8.61385 25.3918 9.73432 25.7983 10.1673C26.8039 11.2348 35.6245 20.2957 36.2324 21.015C36.8987 21.805 37.086 22.7028 37.086 22.7028C37.086 22.7028 40.0003 21.038 38.636 17.2277Z" fill="black"/>
<path d="M17.7171 34.4505C18.2738 33.8938 18.1077 34.06 18.6644 33.5033C19.8591 32.3086 19.8591 30.3698 18.6644 29.1734C17.4697 27.9787 15.531 27.9787 14.3345 29.1734C13.7778 29.7301 13.9439 29.5639 13.3872 30.1206C12.1925 31.3153 12.1925 33.2541 13.3872 34.4505C14.5837 35.6452 16.5207 35.6452 17.7171 34.4505Z" fill="black"/>
<path d="M9.52963 28.4317C10.0863 27.875 9.92021 28.0411 10.4769 27.4844C11.6716 26.2897 11.6716 24.351 10.4769 23.1545C9.28221 21.958 7.34348 21.9598 6.14701 23.1545C5.59031 23.7112 5.75644 23.5451 5.19973 24.1018C4.00504 25.2965 4.00504 27.2352 5.19973 28.4317C6.3962 29.6281 8.33317 29.6281 9.52963 28.4317Z" fill="black"/>
<path d="M5.22592 25.1231C5.78262 24.5664 5.6165 24.7325 6.1732 24.1758C7.3679 22.9811 7.3679 21.0424 6.1732 19.8459C4.9785 18.6494 3.03977 18.6512 1.8433 19.8459C1.2866 20.4026 1.45273 20.2365 0.896024 20.7932C-0.298675 21.9879 -0.298675 23.9266 0.896024 25.1231C2.09249 26.3195 4.02946 26.3195 5.22592 25.1231Z" fill="black"/>
<path d="M13.4574 31.9572C14.0141 31.4005 14.3976 31.017 14.9543 30.4603C16.149 29.2656 16.149 27.3269 14.9543 26.1304C13.7596 24.9357 11.8208 24.9357 10.6244 26.1304C10.0677 26.6871 9.68417 27.0706 9.12747 27.6273C7.93277 28.822 7.93277 30.7607 9.12747 31.9572C10.3239 33.1537 12.2627 33.1537 13.4574 31.9572Z" fill="black"/>
</svg>
