<svg width="33" height="24" viewBox="0 0 33 24" fill="none" xmlns="http://www.w3.org/2000/svg">
<path opacity="0.35" d="M25.7194 5.73928L28.0365 2.26291C28.4831 1.59528 28.3027 0.69055 27.6336 0.245459C26.9616 -0.202541 26.0613 -0.0192684 25.6162 0.648368L23.174 4.31237C21.1784 3.41928 18.9733 2.91019 16.6445 2.91019C14.3158 2.91019 12.1107 3.41928 10.1151 4.31237L7.67289 0.648368C7.2278 -0.0192684 6.32744 -0.202541 5.65544 0.245459C4.98635 0.69055 4.80599 1.59382 5.25253 2.26291L7.56962 5.73928C3.38926 8.62509 0.644531 13.4455 0.644531 18.9102V20.3647C0.644531 21.972 1.94635 23.2738 3.55362 23.2738H29.7354C31.3427 23.2738 32.6445 21.972 32.6445 20.3647V18.9102C32.6445 13.4455 29.8998 8.62509 25.7194 5.73928Z" fill={` ${styleMode ? "white": "black"}`} />
<path d="M23.1896 17.4574C24.3946 17.4574 25.3714 16.4806 25.3714 15.2756C25.3714 14.0706 24.3946 13.0938 23.1896 13.0938C21.9846 13.0938 21.0078 14.0706 21.0078 15.2756C21.0078 16.4806 21.9846 17.4574 23.1896 17.4574Z" fill={` ${styleMode ? "white": "black"}`} />
<path d="M10.0988 17.4574C11.3038 17.4574 12.2806 16.4806 12.2806 15.2756C12.2806 14.0706 11.3038 13.0938 10.0988 13.0938C8.89383 13.0938 7.91699 14.0706 7.91699 15.2756C7.91699 16.4806 8.89383 17.4574 10.0988 17.4574Z" fill={` ${styleMode ? "white": "black"}`} />
</svg>
