<svg width="29" height="32" viewBox="0 0 29 32" fill="none" xmlns="http://www.w3.org/2000/svg">
<path opacity="0.35" d="M21.9595 6.87109C19.0369 6.87109 17.8148 8.66614 15.7896 8.66614C13.7066 8.66614 11.8034 6.98233 9.28298 6.98233C5.85442 6.98386 0.644531 10.161 0.644531 17.6413C0.644531 24.4482 6.81137 32.0017 10.2917 32.0017C12.4068 32.023 12.9203 30.6699 15.7896 30.6562C18.662 30.6348 19.2807 32.02 21.3988 32.0017C23.7835 31.9834 25.6471 29.3655 27.0079 27.2901C27.2364 26.9411 27.433 26.6333 27.6113 26.3438C28.4479 24.9769 28.1172 23.2383 26.8799 22.2189C23.942 19.7975 23.5168 14.6943 26.7945 12.1678C27.9679 11.2627 27.913 9.43718 26.6803 8.61585C25.1305 7.57966 23.2776 6.87109 21.9595 6.87109Z" fill={` ${styleMode ? "white": "black"}`} />
<path d="M21.3862 1.23568C21.4989 0.50273 20.8604 -0.154029 20.1427 0.0318749C18.7302 0.397588 17.3085 1.2052 16.3774 2.17282C15.5683 3.01853 14.8871 4.169 14.7332 5.37586C14.6464 6.06157 15.2285 6.67414 15.9081 6.55376C17.4273 6.28405 18.8536 5.43224 19.7801 4.40672C20.5618 3.54424 21.2033 2.43339 21.3862 1.23568Z" fill={` ${styleMode ? "white": "black"}`} />
</svg>
