<svg width="37" height="32" viewBox="0 0 37 32" fill="none" xmlns="http://www.w3.org/2000/svg">
<path opacity="0.35" d="M10.4224 12.4444C13.8589 12.4444 16.6446 9.65866 16.6446 6.22222C16.6446 2.78578 13.8589 0 10.4224 0C6.98598 0 4.2002 2.78578 4.2002 6.22222C4.2002 9.65866 6.98598 12.4444 10.4224 12.4444Z" fill={` ${styleMode ? "white": "black"}`} />
<path opacity="0.35" d="M26.4224 12.4444C29.8589 12.4444 32.6446 9.65866 32.6446 6.22222C32.6446 2.78578 29.8589 0 26.4224 0C22.986 0 20.2002 2.78578 20.2002 6.22222C20.2002 9.65866 22.986 12.4444 26.4224 12.4444Z" fill={` ${styleMode ? "white": "black"}`} />
<path opacity="0.35" d="M15.7559 19.5547H29.9781C33.4092 19.5547 36.2003 22.3458 36.2003 25.7769C36.2003 29.208 33.4092 31.9991 29.9781 31.9991H15.7559V19.5547Z" fill={` ${styleMode ? "white": "black"}`} />
<path d="M21.9779 25.7769C21.9779 29.208 19.1868 31.9991 15.7556 31.9991H6.86675C5.16009 31.9991 3.59564 31.3058 2.47564 30.168C1.33786 29.048 0.644531 27.4836 0.644531 25.7769C0.644531 22.3458 3.43564 19.5547 6.86675 19.5547H15.7556C17.4623 19.5547 19.0268 20.248 20.1468 21.3858C21.2845 22.5058 21.9779 24.0702 21.9779 25.7769Z" fill={` ${styleMode ? "white": "black"}`} />
</svg>
