<svg width="37" height="32" viewBox="0 0 37 32" fill="none" xmlns="http://www.w3.org/2000/svg">
<path d="M25.4507 5.49219C24.4548 5.49219 23.6465 6.30049 23.6465 7.29643C23.6465 8.29238 24.4548 9.10068 25.4507 9.10068C26.4467 9.10068 27.255 8.29238 27.255 7.29643C27.255 6.30049 26.4467 5.49219 25.4507 5.49219Z" fill="black"/>
<path opacity="0.35" d="M35.6142 3.28495C36.1789 2.62099 35.4698 1.64308 34.6651 1.98048C33.321 2.5434 31.8505 3.04679 30.8077 3.25247C30.7553 3.26691 30.712 3.28314 30.6615 3.29758C29.081 1.73871 26.9177 0.773438 24.5217 0.773438C19.6935 0.773438 15.7783 4.68865 15.7783 9.51682C15.7783 9.77121 15.7566 10.2403 15.7783 10.4875C10.3186 10.4875 5.95236 8.09146 2.58925 4.75C1.73584 3.902 0.285227 4.47575 0.220274 5.67557C0.200428 6.00575 0.191406 6.33773 0.191406 6.6643C0.191406 9.38691 2.31861 12.0608 5.63301 13.7171C5.02318 13.8741 4.35019 13.9877 3.65015 13.9877C3.00964 13.9877 2.12015 13.7243 1.40025 13.4447C0.833718 13.2245 0.267185 13.7478 0.433175 14.3324C1.292 17.3454 4.74352 19.377 7.85945 20.0031C7.13054 20.4325 5.66188 20.4758 4.9456 20.4758C4.7345 20.4758 4.29787 20.4361 3.82696 20.382C3.06557 20.2954 2.55136 21.156 3.00242 21.7749C4.53062 23.875 7.42643 25.0388 10.2104 25.0875C8.32314 26.5669 5.21984 27.3933 2.12375 27.7523C1.03038 27.8804 0.79222 29.3762 1.79358 29.8326C4.63526 31.1299 7.47334 31.8624 10.6218 31.8624C25.0593 31.8624 33.265 20.8583 33.265 10.4857C33.265 10.3179 33.2614 9.96968 33.256 9.61786C33.256 9.58357 33.265 9.54929 33.265 9.51501C33.265 9.46269 33.2488 9.41217 33.2488 9.35985C33.2434 9.09643 33.238 8.84924 33.2308 8.72114C34.3205 7.93449 35.3074 7.01072 36.1645 5.97869C36.4658 5.61603 36.1049 5.08559 35.6575 5.23173C34.6904 5.54747 33.6818 5.7694 32.6426 5.89389C33.5609 5.3454 34.6958 4.36569 35.6142 3.28495Z" fill="black"/>
</svg>
