<svg width="32" height="32" viewBox="0 0 32 32" fill="none" xmlns="http://www.w3.org/2000/svg">
<path opacity="0.35" d="M23.0821 31.8624H9.26473C4.49603 31.8624 0.628906 27.9953 0.628906 23.2266V9.40926C0.628906 4.64056 4.49603 0.773438 9.26473 0.773438H23.0821C27.8508 0.773438 31.7179 4.64056 31.7179 9.40926V23.2266C31.7179 27.9953 27.8508 31.8624 23.0821 31.8624Z" fill="black"/>
<path d="M16.1729 7.68359C11.4042 7.68359 7.53711 11.5507 7.53711 16.3194C7.53711 21.0881 11.4042 24.9552 16.1729 24.9552C20.9416 24.9552 24.8088 21.0881 24.8088 16.3194C24.8088 11.5507 20.9416 7.68359 16.1729 7.68359ZM16.1729 21.5009C13.311 21.5009 10.9914 19.1813 10.9914 16.3194C10.9914 13.4575 13.311 11.1379 16.1729 11.1379C19.0348 11.1379 21.3544 13.4575 21.3544 16.3194C21.3544 19.1813 19.0348 21.5009 16.1729 21.5009Z" fill="black"/>
<path d="M24.8092 9.40745C25.7631 9.40745 26.5364 8.63418 26.5364 7.68029C26.5364 6.7264 25.7631 5.95312 24.8092 5.95312C23.8553 5.95312 23.082 6.7264 23.082 7.68029C23.082 8.63418 23.8553 9.40745 24.8092 9.40745Z" fill="black"/>
</svg>
