<svg width="18" height="32" viewBox="0 0 18 32" fill="none" xmlns="http://www.w3.org/2000/svg">
<path d="M10.3674 31.8624H6.12798C5.34793 31.8624 4.71484 31.2293 4.71484 30.4493V9.25225C4.71484 3.59971 7.54111 0.773438 13.1937 0.773438H16.0199C16.8 0.773438 17.4331 1.40652 17.4331 2.18657V6.42598C17.4331 7.20603 16.8 7.83911 16.0199 7.83911H13.1937C12.4136 7.83911 11.7805 8.4722 11.7805 9.25225V30.4493C11.7805 31.2293 11.1474 31.8624 10.3674 31.8624Z" fill="black"/>
<g opacity="0.35">
<path d="M15.6216 12.0781H11.7793V19.1438H14.915C15.5637 19.1438 16.1289 18.7029 16.2858 18.0726L16.9923 13.8332C17.2156 12.9415 16.5416 12.0781 15.6216 12.0781Z" fill="black"/>
<path d="M4.71401 12.0781H1.88774C1.10769 12.0781 0.474609 12.7112 0.474609 13.4913V17.7307C0.474609 18.5107 1.10769 19.1438 1.88774 19.1438H4.71401V12.0781Z" fill="black"/>
</g>
</svg>
