<svg width="39" height="32" viewBox="0 0 39 32" fill="none" xmlns="http://www.w3.org/2000/svg">
<path opacity="0.35" d="M32.1394 1.50057C28.9597 1.11887 24.5882 0.773438 19.1805 0.773438C13.7727 0.773438 9.40125 1.11887 6.22154 1.50057C2.76548 1.91509 0.181641 4.87373 0.181641 8.35569V24.2819C0.181641 27.7621 2.76548 30.7208 6.22154 31.137C9.40125 31.517 13.7727 31.8624 19.1805 31.8624C24.5882 31.8624 28.9597 31.517 32.1394 31.1353C35.5954 30.719 38.1793 27.7621 38.1793 24.2802V8.35569C38.1793 4.87373 35.5954 1.91509 32.1394 1.50057Z" fill={` ${styleMode ? "white": "black"}`} />
<path d="M25.2611 14.7686L16.8913 9.18818C16.3196 8.8082 15.5838 8.77021 14.9828 9.09491C14.3782 9.41962 14 10.05 14 10.7357V21.8967C14 22.5841 14.3782 23.2128 14.9828 23.5375C15.2574 23.6843 15.5596 23.7568 15.8602 23.7568C16.2211 23.7568 16.5804 23.6515 16.8913 23.4442L25.2611 17.8637C25.7793 17.5183 26.0902 16.938 26.0902 16.3162C26.0902 15.6944 25.7793 15.1141 25.2611 14.7686Z" fill={` ${styleMode ? "white": "black"}`} />
</svg>
