<svg width="32" height="32" viewBox="0 0 32 32" fill="none" xmlns="http://www.w3.org/2000/svg">
<path opacity="0.35" d="M16.1031 31.8624C24.6881 31.8624 31.6476 24.9029 31.6476 16.3179C31.6476 7.73294 24.6881 0.773438 16.1031 0.773438C7.5181 0.773438 0.558594 7.73294 0.558594 16.3179C0.558594 24.9029 7.5181 31.8624 16.1031 31.8624Z" fill={` ${styleMode ? "white": "black"}`} />
<path d="M16.4476 6.53906C9.73858 6.53906 6.17578 11.0439 6.17578 15.9466C6.17578 18.227 7.38981 21.0638 9.33131 21.9685C9.6251 22.1053 9.78366 22.0462 9.8505 21.7618C9.90179 21.5457 10.1645 20.4902 10.2826 19.999C10.3199 19.842 10.3013 19.7068 10.1754 19.5529C9.53339 18.7726 9.01887 17.3409 9.01887 16.0057C9.01887 12.5765 11.6148 9.25935 16.0372 9.25935C19.8565 9.25935 22.5301 11.8615 22.5301 15.5828C22.5301 19.7876 20.4068 22.7007 17.6445 22.7007C16.118 22.7007 14.9755 21.4385 15.3424 19.8918C15.7807 18.0451 16.6294 16.0507 16.6294 14.717C16.6294 13.5232 15.989 12.5284 14.6631 12.5284C13.104 12.5284 11.8511 14.1403 11.8511 16.3026C11.8511 17.6782 12.3159 18.6094 12.3159 18.6094C12.3159 18.6094 10.7754 25.124 10.4925 26.3365C10.18 27.6749 10.3013 29.5558 10.4365 30.7853C10.7878 30.9221 11.1376 31.0605 11.5013 31.1724C12.1355 30.1403 13.0822 28.4475 13.4335 27.0982C13.6231 26.3707 14.4019 23.4017 14.4019 23.4017C14.9087 24.3686 16.3885 25.1862 17.9647 25.1862C22.6529 25.1862 26.0307 20.8757 26.0307 15.5176C26.0307 10.3817 21.84 6.53906 16.4476 6.53906Z" fill={` ${styleMode ? "white": "black"}`} />
</svg>
